<svg xmlns="http://www.w3.org/2000/svg" viewBox="0 90 1462 840" role="img" aria-label="JMB advisors">
  <g transform="scale(1,-1) translate(0,-960)" fill="currentColor">
    <path d="M1259.781 242.91c61.411 0 110.607 17.982 147.59 54.286 35.965 35.965 54.286 85.839 54.286 149.625 0 64.125-18.321 114.001-54.286 150.304-36.643 36.304-85.839 54.286-147.59 54.286-25.107 0-55.304-10.179-77.697-24.089v157.090c0 41.393-10.179 62.089-30.875 62.089h-121.804v-7.803c32.232 0 28.161-17.982 28.161-54.286v-478.733c0-6.447 0-12.553 0-17.643 0-7.125-0.339-13.232-1.018-18.321-2.036-12.214-8.482-18.321-27.482-18.321h-5.768c-32.232 0-28.161 17.982-28.161 54.286v201.537c0 95.679-67.179 143.518-201.875 143.518-25.786 0-52.929-9.161-80.75-27.821-9.161-6.786-18.661-14.929-27.821-24.768-32.571 35.286-89.572 52.929-170.661 52.929-22.393 0-45.804-7.125-69.893-21.036-5.089 13.911-13.571 21.036-25.447 21.036h-120.447v-8.143c32.232 0 28.161-17.982 28.161-54.286v-282.965c0-36.304 2.375-54.286-28.161-54.286v-7.803h180.161v7.803c-28.839 0-28.161 17.982-28.161 54.286v283.305c0 9.161-0.679 17.303-1.697 24.429 21.715 13.232 43.429 19.679 65.821 19.679 51.571 0 77.697-48.179 77.697-139.107v-188.304c0-36.304 1.697-54.286-28.161-54.286v-7.803h180.501v7.803c-30.197 0-28.161 17.982-28.161 54.286v201.537c0 32.232-6.107 54.965-21.036 75.661 3.393 4.411 12.214 13.911 22.732 21.715 25.786 19 49.197 27.143 76 27.143 51.571 0 77.697-43.429 77.697-139.107v-186.947c0-36.304 2.714-54.286-28.161-54.286v-7.803h310.108c14.25 0 25.786 10.179 28.161 23.75 22.732-14.25 52.929-24.429 78.036-24.429zM1259.781 634.447c33.589 0 56.321-11.197 68.197-40.715 6.107-16.625 9.161-146.911 9.161-146.911 0-84.822-3.053-130.625-9.161-146.911-11.875-29.518-34.607-40.715-68.197-40.715-23.071 0-53.268 11.197-77.697 26.465v322.323c24.429 15.268 54.625 26.465 77.697 26.465zM232.42 650.732h-125.197v-7.803c35.965 0 30.536-21.036 30.536-58.018v-401.376c-1.357-84.143-22.732-117.733-63.447-117.733-32.571 0-47.5 13.911-59.715 37.321l-14.589-7.125c13.911-30.875 39.018-46.482 74.983-46.482 63.447 0 110.947 17.982 142.161 54.286s46.821 96.697 46.821 173.375v307.394c0 42.071-10.518 66.161-31.554 66.161zM345.063 172.338l-39.357-120.786h21.715l9.5 32.571h40.715l9.5-32.571h22.393l-39.357 120.786h-25.107zM342.010 101.087l4.411 14.589c3.732 12.893 7.464 26.465 10.857 39.697h0.679c3.393-13.232 7.125-27.143 10.857-39.697l4.411-14.589h-31.215zM484.171 172.338h-32.232v-120.786h33.25c35.625 0 57.679 20.697 57.679 60.733s-21.715 60.054-58.697 60.054zM482.814 69.195h-9.5v85.839h9.5c24.429 0 38.339-12.893 38.339-42.411 0-29.857-13.911-43.429-38.339-43.429zM638.547 111.605c-3.732-13.571-6.447-25.447-10.518-39.357h-0.679c-4.071 13.911-6.786 25.786-10.857 39.357l-16.965 60.733h-22.732l37.661-120.786h25.107l37.321 120.786h-22.053l-16.286-60.733zM719.636 172.338h21.375v-120.786h-21.375v120.786zM853.654 118.052l-16.286 6.786c-9.839 4.071-19.339 7.464-19.339 16.965 0 8.821 7.464 14.25 19 14.25 10.179 0 18.321-3.732 26.125-10.179l10.857 13.571c-9.5 9.5-23.071 15.268-36.982 15.268-23.75 0-40.715-14.589-40.715-33.929 0-17.643 12.553-27.143 24.429-32.232l16.625-7.125c10.857-4.75 18.661-7.803 18.661-17.643 0-9.5-7.464-15.607-21.036-15.607-11.197 0-22.732 5.429-31.215 13.571l-12.553-14.589c11.536-11.197 27.143-17.643 43.429-17.643 27.143 0 43.429 16.286 43.429 35.625 0 17.643-10.179 26.803-24.429 32.911zM974.44 174.713c-31.215 0-53.268-23.071-53.268-62.089s21.715-63.107 53.268-63.107c31.554 0 53.268 24.089 53.268 63.107s-21.715 62.089-53.268 62.089zM974.44 68.177c-19 0-31.215 17.303-31.215 44.447 0 26.803 12.214 43.429 31.215 43.429s31.215-16.286 31.215-43.429c0-27.143-12.214-44.447-31.215-44.447zM1164.441 136.713c0 26.803-19.339 35.625-44.107 35.625h-40.715v-120.786h21.375v47.161h18.321l26.125-47.161h24.089l-28.839 50.215c14.25 5.429 23.75 16.286 23.75 34.947zM1117.959 116.016h-17.303v39.357h17.303c16.286 0 25.447-4.75 25.447-18.661s-8.821-20.697-25.447-20.697zM1267.923 118.052l-16.286 6.786c-9.839 4.071-19.339 7.464-19.339 16.965 0 8.821 7.464 14.25 19 14.25 10.179 0 18.321-3.732 26.125-10.179l10.857 13.571c-9.5 9.5-23.071 15.268-36.982 15.268-23.75 0-40.715-14.589-40.715-33.929 0-17.643 12.553-27.143 24.429-32.232l16.625-7.125c10.857-4.75 18.661-7.803 18.661-17.643 0-9.5-7.464-15.607-21.036-15.607-11.197 0-22.732 5.429-31.215 13.571l-12.553-14.589c11.536-11.197 27.143-17.643 43.429-17.643 27.143 0 43.429 16.286 43.429 35.625 0 17.643-10.179 26.803-24.429 32.911zM200.867 846.501c-17.982 0-32.911-6.107-45.125-18.661-12.214-12.214-18.321-27.143-18.321-44.786 0-17.303 6.107-32.232 18.321-44.447s27.143-18.661 45.125-18.661c17.303 0 32.232 6.107 44.786 18.661 12.214 12.214 18.661 27.143 18.661 44.447s-6.107 32.232-18.661 44.786c-12.553 12.553-27.482 18.661-44.786 18.661zM1398.549 176.070c-17.982 0-32.911-6.107-45.125-18.661-12.214-12.214-18.321-27.143-18.321-44.786 0-17.303 6.107-32.232 18.321-44.447s27.143-18.661 45.125-18.661c17.303 0 32.232 6.107 44.786 18.661 12.214 12.214 18.661 27.143 18.661 44.447s-6.107 32.232-18.661 44.786c-12.553 12.214-27.482 18.661-44.786 18.661z" />
  </g>
</svg>
