<?xml version="1.0" encoding="utf-8"?>
<!-- Generator: Adobe Illustrator 22.1.0, SVG Export Plug-In . SVG Version: 6.00 Build 0)  -->
<svg version="1.1" id="Layer_1" xmlns="http://www.w3.org/2000/svg" xmlns:xlink="http://www.w3.org/1999/xlink" x="0px" y="0px"
	 viewBox="0 0 200 200" style="enable-background:new 0 0 200 200;" xml:space="preserve">
<style type="text/css">
	.st0{fill:#FFFFFF;}
	.st1{fill:#A28357;}
	.st2{fill:#283C51;}
	.st3{fill:#A6945C;}
	.st4{fill:#1F2D51;}
</style>
<rect y="0" class="st0" width="200" height="200"/>
<path class="st1" d="M100,53l3.1,7.6l8.7-21.3c-0.5-0.2-0.9-0.3-1.4-0.5l-7.3,17.9l-2.3-5.7l5.4-13.2c-0.5-0.1-1-0.2-1.5-0.2
	L100,49.1l-4.7-11.5c-0.5,0.1-1,0.1-1.5,0.2l5.4,13.2l-2.3,5.7l-7.3-17.9c-0.5,0.1-0.9,0.3-1.4,0.5l8.7,21.3L100,53z"/>
<path class="st1" d="M100,94.1l-3.1-7.6l-8.7,21.3c0.5,0.2,0.9,0.3,1.4,0.5l7.3-17.9l2.3,5.7l-5.4,13.2c0.5,0.1,1,0.2,1.5,0.2
	L100,98l4.7,11.5c0.5-0.1,1-0.1,1.5-0.2L100.8,96l2.3-5.7l7.3,17.9c0.5-0.1,0.9-0.3,1.4-0.5l-8.7-21.3L100,94.1z"/>
<path class="st1" d="M85.5,59l7.6,3.2L84.2,41c-0.4,0.2-0.9,0.4-1.3,0.7l7.4,17.8l-5.7-2.4l-5.5-13.1c-0.4,0.3-0.8,0.6-1.2,0.9
	l4.8,11.4l-11.4-4.8c-0.3,0.4-0.6,0.8-0.9,1.2l13.1,5.5l2.4,5.7l-17.8-7.4c-0.2,0.4-0.5,0.9-0.7,1.3l21.2,8.9L85.5,59z"/>
<path class="st1" d="M114.5,88.1l-7.6-3.2l8.9,21.2c0.4-0.2,0.9-0.4,1.3-0.7l-7.4-17.8l5.7,2.4l5.5,13.1c0.4-0.3,0.8-0.6,1.2-0.9
	l-4.8-11.4l11.4,4.8c0.3-0.4,0.6-0.8,0.9-1.2l-13.1-5.5l-2.4-5.7l17.8,7.4c0.2-0.4,0.5-0.9,0.7-1.3l-21.2-8.9L114.5,88.1z"/>
<path class="st1" d="M79.5,73.6l7.6-3.1l-21.3-8.7c-0.2,0.5-0.3,0.9-0.5,1.4l17.9,7.3l-5.7,2.3l-13.2-5.4c-0.1,0.5-0.2,1-0.2,1.5
	l11.5,4.7l-11.5,4.7c0.1,0.5,0.1,1,0.2,1.5l13.2-5.4l5.7,2.3L65.3,84c0.1,0.5,0.3,0.9,0.5,1.4l21.3-8.7L79.5,73.6z"/>
<path class="st1" d="M122.5,72.8l-5.7-2.3l17.9-7.3c-0.1-0.5-0.3-0.9-0.5-1.4l-21.3,8.7l7.6,3.1l-7.6,3.1l21.3,8.7
	c0.2-0.5,0.3-0.9,0.5-1.4l-17.9-7.3l5.7-2.3l13.2,5.4c0.1-0.5,0.2-1,0.2-1.5l-11.5-4.7l11.5-4.7c-0.1-0.5-0.1-1-0.2-1.5L122.5,72.8z
	"/>
<path class="st1" d="M85.5,88.1l3.2-7.6l-21.2,8.9c0.2,0.4,0.4,0.9,0.7,1.3l17.8-7.4l-2.4,5.7l-13.1,5.5c0.3,0.4,0.6,0.8,0.9,1.2
	l11.4-4.8L78,102.3c0.4,0.3,0.8,0.6,1.2,0.9L84.7,90l5.7-2.4l-7.4,17.8c0.4,0.2,0.9,0.5,1.3,0.7l8.9-21.2L85.5,88.1z"/>
<path class="st1" d="M114.5,59l-3.2,7.6l21.2-8.9c-0.2-0.4-0.4-0.9-0.7-1.3l-17.8,7.4l2.4-5.7l13.1-5.5c-0.3-0.4-0.6-0.8-0.9-1.2
	l-11.4,4.8l4.8-11.4c-0.4-0.3-0.8-0.6-1.2-0.9l-5.5,13.1l-5.7,2.4l7.4-17.8c-0.4-0.2-0.9-0.5-1.3-0.7l-8.9,21.2L114.5,59z"/>
<polygon class="st2" points="32.3,125.3 33.8,125.3 37.8,139.5 37.8,139.5 41.9,125.3 43.8,125.3 47.8,139.5 47.9,139.5 51.8,125.3 
	53.4,125.3 48.7,141.3 46.9,141.3 42.8,127.1 42.8,127.1 38.8,141.3 36.9,141.3 "/>
<path class="st2" d="M62.5,124.9c4.9,0,8.3,3.5,8.3,8.4c0,4.9-3.4,8.4-8.3,8.4c-4.9,0-8.3-3.5-8.3-8.4
	C54.2,128.4,57.6,124.9,62.5,124.9 M62.5,140.3c4.2,0,6.8-3.1,6.8-7c0-4-2.6-7-6.8-7s-6.8,3.1-6.8,7S58.3,140.3,62.5,140.3"/>
<path class="st2" d="M73.7,125.3h4.2c1.3,0,5.7,0,5.7,4.2c0,3.1-2.3,3.9-4.1,4.1l4.7,7.7h-1.7l-4.5-7.6h-2.8v7.6h-1.5V125.3z
	 M75.2,132.4h3.2c3.1,0,3.7-1.7,3.7-2.8c0-1.1-0.6-2.8-3.7-2.8h-3.2V132.4z"/>
<polygon class="st2" points="86.7,125.3 88.2,125.3 88.2,139.9 95.6,139.9 95.6,141.3 86.7,141.3 "/>
<path class="st2" d="M97.4,125.3h4.9c8.3,0,8.6,6.8,8.6,8s-0.3,8-8.6,8h-4.9V125.3z M98.9,139.9h3.1c4.2,0,7.5-2.1,7.5-6.6
	s-3.3-6.6-7.5-6.6h-3.1V139.9z"/>
<polygon class="st2" points="119.2,125.3 121.5,125.3 127.3,138.7 133.1,125.3 135.2,125.3 135.2,141.3 133.7,141.3 133.7,127.2 
	133.7,127.2 127.6,141.3 126.9,141.3 120.8,127.2 120.7,127.2 120.7,141.3 119.2,141.3 "/>
<path class="st2" d="M147.9,136.6l2.3-4.2h1.5l-2.9,5.1l3.6,3.8h-2l-2.4-2.6c-1.3,1.7-2.7,2.9-5,2.9c-2.7,0-4.9-1.8-4.9-4.7
	c0-2.5,1.8-3.6,3.7-4.7c-0.9-1.1-1.9-2.3-1.9-3.8c0-2.3,1.9-3.6,4-3.6c1.9,0,3.6,1.4,3.6,3.4c0,2.3-1.8,3.3-3.6,4.2L147.9,136.6z
	 M142.7,133.3c-1.4,0.9-3,1.8-3,3.7c0,2,1.6,3.3,3.6,3.3c1.7,0,3-1.1,3.8-2.5L142.7,133.3z M141.4,128.5c0,1.1,1,2.3,1.7,3.1
	c1.3-0.7,2.9-1.5,2.9-3.2c0-1.3-0.9-2.1-2.2-2.1C142.5,126.3,141.4,127.2,141.4,128.5"/>
<path class="st2" d="M159.5,125.3h1.5l6.7,16h-1.7l-1.7-4.2h-8.5l-1.8,4.2h-1.6L159.5,125.3z M160.2,126.9l-3.7,8.8h7.3L160.2,126.9
	z"/>
<path class="st2" d="M55.8,145.9h1.5l6.7,16h-1.7l-1.7-4.2h-8.5l-1.8,4.2h-1.6L55.8,145.9z M56.5,147.6l-3.7,8.8h7.3L56.5,147.6z"/>
<polygon class="st2" points="66,145.9 67.5,145.9 67.5,160.6 75,160.6 75,161.9 66,161.9 "/>
<polygon class="st2" points="76.9,145.9 78.4,145.9 78.4,160.6 85.8,160.6 85.8,161.9 76.9,161.9 "/>
<rect x="87.8" y="145.9" class="st2" width="1.5" height="16"/>
<path class="st2" d="M98.2,145.9h1.5l6.7,16h-1.7l-1.7-4.2h-8.5l-1.8,4.2h-1.6L98.2,145.9z M98.9,147.6l-3.7,8.8h7.3L98.9,147.6z"/>
<polygon class="st2" points="108.3,145.9 110.2,145.9 120,159.9 120,159.9 120,145.9 121.5,145.9 121.5,161.9 119.6,161.9 
	109.9,147.9 109.8,147.9 109.8,161.9 108.3,161.9 "/>
<path class="st2" d="M138.7,159.4c-1.5,2.1-3.6,2.9-5.9,2.9c-4.9,0-8.3-3.5-8.3-8.4c0-4.9,3.4-8.4,8.3-8.4c2.2,0,4.1,0.7,5.5,2.5
	l-1.2,1c-1-1.5-2.7-2.2-4.3-2.2c-4.2,0-6.8,3.1-6.8,7c0,4,2.6,7,6.8,7c1.6,0,3.6-0.8,4.7-2.5L138.7,159.4z"/>
<polygon class="st2" points="141,145.9 150.8,145.9 150.8,147.3 142.5,147.3 142.5,153 150.3,153 150.3,154.3 142.5,154.3 
	142.5,160.6 151.1,160.6 151.1,161.9 141,161.9 "/>
<rect x="0" y="0" class="st0" width="200" height="200"/>
<g>
	<g>
		<path class="st3" d="M99.4,57l-2,5l-7-17.2c-0.6,0.2-1.3,0.4-1.9,0.6l8.9,21.8l3.1-7.6l3.1,7.6l8.8-21.7c-0.6-0.2-1.2-0.4-1.9-0.6
			l-7,17.1l-2-5l5.3-13c-0.7-0.1-1.3-0.2-2-0.3l-4.3,10.7l-4.4-10.7c-0.7,0.1-1.4,0.2-2,0.3"/>
		<path class="st3" d="M100.5,99.8l-3.1-7.6l-8.9,21.8c0.6,0.2,1.3,0.4,1.9,0.6l7-17.1l2,5l-5.3,13c0.7,0.1,1.3,0.2,2,0.3l4.4-10.7
			l4.3,10.7c0.7-0.1,1.4-0.2,2-0.3l-5.3-13l2-5l6.9,17.1c0.6-0.2,1.3-0.4,1.9-0.6l-8.8-21.7L100.5,99.8z"/>
		<path class="st3" d="M86.3,65.5l7.5,3.2L84.7,47c-0.6,0.3-1.2,0.6-1.8,0.9L90.1,65l-4.9-2.1l-5.5-13c-0.6,0.4-1.1,0.8-1.6,1.2
			l4.5,10.7l-10.7-4.5c-0.4,0.5-0.8,1.1-1.2,1.6l13,5.5l2.1,4.9l-17.1-7.2c-0.3,0.6-0.6,1.2-0.9,1.8l21.8,9.2L86.3,65.5z"/>
		<path class="st3" d="M114.7,93.9l-7.5-3.2l9.1,21.6c0.6-0.3,1.2-0.6,1.8-0.9l-7.2-17l4.9,2.1l5.4,12.9c0.6-0.4,1.1-0.8,1.6-1.2
			l-4.4-10.6l10.5,4.4c0.4-0.5,0.8-1.1,1.2-1.6L117.3,95l-2.1-4.9l16.9,7.1c0.3-0.6,0.6-1.2,0.9-1.8l-21.5-9.1L114.7,93.9z"/>
		<path class="st3" d="M80.4,79.7l7.6-3.1l-21.9-8.9c-0.2,0.6-0.4,1.3-0.6,1.9l17.2,7l-5,2l-13.1-5.3c-0.1,0.7-0.2,1.3-0.3,2
			l10.8,4.4l-10.8,4.4c0.1,0.7,0.2,1.3,0.3,2l13.1-5.3l5,2l-17.2,7c0.2,0.6,0.4,1.3,0.6,1.9L88,82.8L80.4,79.7z"/>
		<path class="st3" d="M125.8,79.7l10.6-4.3c-0.1-0.7-0.2-1.3-0.3-2l-12.9,5.2l-5-2l17-6.9c-0.2-0.6-0.4-1.3-0.6-1.9L113,76.7
			l7.6,3.1l-7.6,3.1l21.6,8.8c0.2-0.6,0.4-1.3,0.6-1.9l-17-6.9l5-2l12.9,5.2c0.1-0.7,0.2-1.3,0.3-2L125.8,79.7z"/>
		<path class="st3" d="M86.3,93.9l3.2-7.5l-21.8,9.2c0.3,0.6,0.6,1.2,0.9,1.8l17.1-7.2L83.7,95l-13,5.5c0.4,0.6,0.8,1.1,1.2,1.6
			l10.7-4.5l-4.5,10.7c0.5,0.4,1.1,0.8,1.6,1.2l5.5-13l4.9-2.1l-7.2,17.1c0.6,0.3,1.2,0.6,1.8,0.9l9.2-21.7L86.3,93.9z"/>
		<path class="st3" d="M114.7,65.5l-3.2,7.5l21.5-9.1c-0.3-0.6-0.6-1.2-0.9-1.8l-16.9,7.1l2.1-4.9l12.8-5.4
			c-0.4-0.6-0.8-1.1-1.2-1.6l-10.5,4.4l4.5-10.6c-0.5-0.4-1.1-0.8-1.6-1.2l-5.4,12.9l-4.9,2.1l7.2-17c-0.6-0.3-1.2-0.6-1.8-0.9
			l-9.1,21.6L114.7,65.5z"/>
	</g>
	<polygon class="st4" points="54.5,125.3 54.5,125.1 52.7,125.1 48.7,139.5 44.6,125.2 44.6,125.1 42.5,125.1 38.4,139.5 
		34.3,125.1 32.6,125.1 37.4,141.8 39.4,141.8 43.5,127.3 47.6,141.7 47.7,141.8 49.7,141.8 	"/>
	<path class="st4" d="M62.9,142.2c5.1,0,8.6-3.6,8.6-8.7c0-5.1-3.5-8.7-8.6-8.7c-5.1,0-8.6,3.6-8.6,8.7
		C54.3,138.6,57.9,142.2,62.9,142.2z M56,133.5c0-4.2,2.8-7.2,6.9-7.2c4.1,0,6.9,2.9,6.9,7.2c0,4.2-2.8,7.2-6.9,7.2
		C58.9,140.6,56,137.7,56,133.5z"/>
	<path class="st4" d="M75.1,134h2.7l4.6,7.8l0,0h2l-4.8-7.9c2.7-0.4,4.1-1.9,4.1-4.3c0-2.9-2-4.4-6-4.4h-4.4v16.6h1.7V134z
		 M78.3,132.4h-3.2v-5.7h3.2c3.4,0,3.8,2,3.8,2.8C82.1,130.4,81.7,132.4,78.3,132.4z"/>
	<polygon class="st4" points="95.6,140.2 87.9,140.2 87.9,125.1 86.2,125.1 86.2,141.8 95.6,141.8 	"/>
	<path class="st4" d="M102.4,125.1h-5.2v16.6h5.2c8.6,0,9-6.9,9-8.3C111.4,132.1,111,125.1,102.4,125.1z M99,126.7h3.1
		c4.8,0,7.7,2.5,7.7,6.7c0,4.2-2.9,6.7-7.7,6.7H99V126.7z"/>
	<polygon class="st4" points="120.5,127.5 126.8,141.8 127.5,141.8 133.7,127.5 133.7,141.8 135.4,141.8 135.4,125.1 133.1,125.1 
		127.2,138.8 121.2,125.2 121.2,125.1 118.8,125.1 118.8,141.8 120.5,141.8 	"/>
	<path class="st4" d="M159.2,125.1l-7.2,16.5l-3.5-3.7l3-5.3h-1.8l-2.3,4.2l-3.8-4.1c1.8-1,3.6-2,3.6-4.4c0-2.2-1.9-3.6-3.8-3.6
		c-2.1,0-4.2,1.3-4.2,3.8c0,1.5,1,2.8,2,3.9c-1.8,1.1-3.7,2.3-3.7,4.9c0,2.8,2.2,4.9,5.1,4.9c2.1,0,3.6-0.9,5.1-2.9l2.3,2.5l0,0h2.1
		h0.3h1.5l1.9-4.4h8.6l1.8,4.3l0,0.1h1.9l-7-16.6H159.2z M163.5,135.8h-7.3l3.7-8.7L163.5,135.8z M140.8,128.5c0-1.3,1-2.2,2.4-2.2
		c1.3,0,2.2,0.9,2.2,2.1c0,1.7-1.6,2.5-2.9,3.2C141.8,130.8,140.8,129.6,140.8,128.5z M142,133.5l4.5,4.6c-0.8,1.1-2,2.4-3.8,2.4
		c-2.1,0-3.6-1.4-3.6-3.3C139,135.4,140.6,134.4,142,133.5z"/>
	<path class="st4" d="M55.2,146L48,162.5l-0.1,0.1h1.8l1.9-4.4h8.6l1.8,4.3l0,0.1h1.9l-7-16.6H55.2z M59.6,156.7h-7.3L56,148
		L59.6,156.7z"/>
	<polygon class="st4" points="67.5,146 65.8,146 65.8,162.6 75.2,162.6 75.2,161 67.5,161 	"/>
	<polygon class="st4" points="78.9,146 77.2,146 77.2,162.6 86.6,162.6 86.6,161 78.9,161 	"/>
	<rect x="88.4" y="146" class="st4" width="1.7" height="16.6"/>
	<path class="st4" d="M99,146l-7.2,16.5l-0.1,0.1h1.8l1.9-4.4h8.6l1.8,4.3l0,0.1h1.9l-7-16.6H99z M103.4,156.7h-7.3l3.7-8.7
		L103.4,156.7z"/>
	<polygon class="st4" points="121.2,160.3 111.3,146 111.3,146 109.1,146 109.1,162.6 110.9,162.6 110.9,148.3 120.8,162.6 
		120.8,162.6 122.9,162.6 122.9,146 121.2,146 	"/>
	<path class="st4" d="M138.1,158.9c-1.2,1.9-3.3,2.5-4.8,2.5c-4.1,0-6.9-2.9-6.9-7.2c0-4.2,2.8-7.2,6.9-7.2c1.8,0,3.4,0.8,4.3,2.2
		l0.1,0.1l1.4-1.2l-0.1-0.1c-1.4-1.7-3.3-2.6-5.7-2.6c-5.1,0-8.6,3.6-8.6,8.7c0,5.1,3.5,8.7,8.6,8.7c2.6,0,4.7-1,6.2-3l0.1-0.1
		L138.1,158.9L138.1,158.9z"/>
	<polygon class="st4" points="143.4,154.8 151.4,154.8 151.4,153.2 143.4,153.2 143.4,147.6 151.9,147.6 151.9,146 141.7,146 
		141.7,162.6 152.3,162.6 152.3,161 143.4,161 	"/>
</g>
</svg>
